<svg xmlns="http://www.w3.org/2000/svg" viewBox="0 0 223.51 49.05"><defs><style>.cls-1{font-size:45px;fill:#fff;font-family:BebasNeue-Bold, Bebas Neue;font-weight:700;letter-spacing:0.01em;}.cls-2{fill:#f5f4fa;}</style></defs><g id="Layer_2" data-name="Layer 2"><g id="Layer_1-2" data-name="Layer 1"><text class="cls-1" transform="translate(6.61 41)">s cripTY MUSIC</text><path class="cls-2" d="M3.61,7.76C3.87,4.11,8.85,1.24,14.9,1.24s11,2.87,11.29,6.52c0,.17.23.3.51.3h1C27.74,3.78,22,.31,14.9.31S2.05,3.78,2.05,8.06h1c.28,0,.51-.13.52-.3Z"/><path class="cls-2" d="M1,17.06H3.08v-5H1c-.57,0-1,.28-1,.62v3.73c0,.34.46.62,1,.62Z"/><path class="cls-2" d="M3.08,17.06v.31a.6.6,0,0,0,.57.62h1.7a.6.6,0,0,0,.57-.62V11.78a.6.6,0,0,0-.57-.62H3.65a.6.6,0,0,0-.57.62Z"/><path class="cls-2" d="M3.08,11.78V10.54c0-.17-.23-.31-.51-.31h-1c-.28,0-.51.14-.51.31v1.55H3.08Z"/><path class="cls-2" d="M26.71,17.06h2.06c.56,0,1-.28,1-.62V12.71c0-.34-.46-.62-1-.62H26.71Z"/><path class="cls-2" d="M26.71,11.78a.57.57,0,0,0-.5-.62h-1.5a.58.58,0,0,0-.5.62v5.59a.58.58,0,0,0,.5.62h1.5a.57.57,0,0,0,.5-.62Z"/><path class="cls-2" d="M26.71,10.54v1.55h2.06V10.54c0-.17-.23-.31-.52-.31h-1c-.29,0-.52.14-.52.31Z"/><path class="cls-2" d="M28.25,10.23h-1V8.06C27.23,4,21.71.62,14.9.62S2.57,4,2.57,8.06v2.17h-1V8.06C1.54,3.61,7.52,0,14.9,0S28.25,3.61,28.25,8.06Z"/></g></g></svg>